<svg xmlns="http://www.w3.org/2000/svg" width="58" height="60" fill="none"><g stroke="#B68C2D" stroke-miterlimit="10" clip-path="url(#a)"><path d="M44.281 34.776c-3.654 4.83-9.673 12.666-10.532 23.4 0 .429-.216.75-.538.965-.322.215-.645.43-1.075.43h-6.663c-.43 0-.753-.108-1.075-.43-.323-.214-.43-.644-.538-.966-.752-10.733-10.317-23.399-10.317-23.399"/><path d="m30.524 30.805-.108 11.807c0 .322.108.644.323.966.215.322.43.43.752.536.323.108.645.108.968 0 .322-.107.644-.322.752-.536l8.92-11.163m-25.901-.859 8.168 12.13c.215.214.537.428.752.536a1.5 1.5 0 0 0 .968 0c.322-.108.537-.322.752-.537.215-.322.322-.537.322-.966l.108-11.807"/><path d="M7.094 14.705c-.215.322-.538.644-.86.751-1.612.537-3.117 1.718-4.084 3.22C1.075 20.18.538 22.004.538 23.828c0 8.372 2.687 12.451 8.383 12.558 1.397 0 2.687-.429 3.87-1.073.752-.43 1.396-.966 2.041-1.61 1.612-1.717 2.472-3.971 2.472-6.333 0-.322.108-.751.323-1.073.322-.322.645-.537.967-.644.322-.107.752-.107 1.075.107.322.215.537.537.752.859 1.182 2.683 4.514 4.4 8.491 4.4 3.87 0 7.201-1.717 8.49-4.4a4.64 4.64 0 0 1 .646-.751c.215-.108.537-.215.86-.215h.43c.43.107.752.322.967.644.215.322.322.644.322 1.073 0 2.362.86 4.616 2.472 6.333 1.612 1.61 3.654 2.576 5.912 2.576 4.299 0 8.383-6.01 8.168-12.45-.108-1.826-.645-3.65-1.612-5.153a9.14 9.14 0 0 0-4.084-3.22c-.323-.215-.645-.43-.86-.751-.108-.322-.215-.644-.215-1.074v-.322c0-.75-.108-1.502-.323-2.146-.215-.752-.645-1.288-1.075-1.825-.43-.537-.967-.859-1.612-1.18-.645-.323-1.29-.43-1.934-.43-1.183 0-2.365.43-3.225 1.288-.107.215-.43.322-.645.43a.92.92 0 0 1-.752 0c-.215-.108-.43-.215-.645-.43-.215-.107-.322-.43-.43-.644a12.038 12.038 0 0 0-4.299-5.689C33.534 1.288 31.276.537 28.912.537c-2.365 0-4.622.751-6.556 2.146-1.935 1.396-3.44 3.435-4.3 5.689-.107.215-.214.43-.43.644-.214.215-.537.322-.752.43a.92.92 0 0 1-.752 0c-.215-.108-.43-.215-.645-.43-.86-.859-2.042-1.288-3.224-1.288-1.29 0-2.58.644-3.547 1.61C7.739 10.304 7 13.605 7 15"/></g><defs><clipPath id="a"><path fill="#fff" d="M0 0h57.931v60H0z"/></clipPath></defs></svg>