<svg xmlns="http://www.w3.org/2000/svg" width="180" height="44" fill="none"><path fill="#fff" d="M55.223 13.61c.171.263.385.496.632.69.257.196.593.432 1.005.714.387.242.76.504 1.12.786.285.228.527.506.713.82.198.337.3.722.291 1.113a2.23 2.23 0 0 1-.392 1.3 2.606 2.606 0 0 1-1.084.885 3.652 3.652 0 0 1-1.542.312 5.336 5.336 0 0 1-1.316-.17 2.402 2.402 0 0 1-.924-.388.348.348 0 0 1-.105-.106.262.262 0 0 1-.035-.161l-.046-2.23c0-.036.026-.056.07-.061.046-.005.076 0 .086.045.281.574.527 1.037.733 1.39.211.357.481.675.799.941.304.266.696.411 1.1.408.334.013.661-.094.923-.302a1.274 1.274 0 0 0 .362-1.007 2.078 2.078 0 0 0-.271-1.077 2.903 2.903 0 0 0-.663-.79 14.478 14.478 0 0 0-1.08-.771 11.24 11.24 0 0 1-1.044-.745 2.92 2.92 0 0 1-.633-.74 1.907 1.907 0 0 1-.266-1.007 1.886 1.886 0 0 1 .427-1.254c.29-.348.668-.61 1.095-.76a4.162 4.162 0 0 1 1.416-.242c.337 0 .673.03 1.004.09.276.044.548.116.809.217a.361.361 0 0 1 .17.121.308.308 0 0 1 .04.161v2.06c0 .03 0 .05-.07.065s-.075 0-.08 0l-.116-.267a6.199 6.199 0 0 0-.818-1.51 1.547 1.547 0 0 0-1.306-.62 1.313 1.313 0 0 0-.919.323 1.208 1.208 0 0 0-.356.941c.01.295.104.582.27.826Zm12.157-1.712a1.157 1.157 0 0 0-.959-.433s-.025-.03-.025-.085c0-.056 0-.086.025-.086h.673c.357 0 .638.03.854.03.216 0 .432 0 .768-.03h.648s.025.03.025.085c0 .056 0 .086-.025.086a1.003 1.003 0 0 0-.854.433 2.018 2.018 0 0 0-.311 1.193v3.902a3.37 3.37 0 0 1-.432 1.722 2.905 2.905 0 0 1-1.225 1.148 4.009 4.009 0 0 1-1.828.398 4.11 4.11 0 0 1-1.833-.393 2.955 2.955 0 0 1-1.25-1.123 3.345 3.345 0 0 1-.458-1.762v-4.531c.01-.21-.016-.419-.075-.62a.458.458 0 0 0-.281-.271 1.964 1.964 0 0 0-.638-.076c-.025 0-.04-.03-.04-.085 0-.056 0-.086.04-.086h.743c.432 0 .769.03 1.005.03.236 0 .632 0 1.06-.03h.717c.025 0 .04.03.04.086 0 .055 0 .085-.04.085a1.676 1.676 0 0 0-.638.086.5.5 0 0 0-.28.287 1.88 1.88 0 0 0-.076.624v4.028c-.07.874.162 1.745.658 2.467a2.264 2.264 0 0 0 1.858.8 2.37 2.37 0 0 0 1.823-.71 2.88 2.88 0 0 0 .658-2.013V13.09a1.872 1.872 0 0 0-.327-1.193Zm12.336-.519c0 .055 0 .085-.03.085a1.002 1.002 0 0 0-.879.444 1.957 1.957 0 0 0-.326 1.183v7.164s0 .045-.06.056a.085.085 0 0 1-.09 0l-6.564-7.487v5.458c-.024.415.083.827.306 1.178a1.005 1.005 0 0 0 .854.438s.03.025.03.08c0 .056 0 .086-.03.086h-2.913c-.025 0-.04-.03-.04-.086 0-.055 0-.08.04-.08a1.186 1.186 0 0 0 .974-.438c.256-.338.382-.756.357-1.178v-5.936a3.657 3.657 0 0 0-.788-.695 1.353 1.353 0 0 0-.678-.187s-.03-.03-.03-.085c0-.056 0-.086.03-.086h2.681a.251.251 0 0 1 .171.056l.196.241c.155.217.266.358.331.433l4.846 5.599v-4.531a2.017 2.017 0 0 0-.311-1.193 1.006 1.006 0 0 0-.854-.434s-.025-.03-.025-.085c0-.056 0-.086.025-.086h.603c.301 0 .552.03.758.03.206 0 .447 0 .784-.03h.627s.005.03.005.086Zm2.826 2.231c.173.263.388.496.637.69.251.196.593.432 1.005.714.387.242.76.504 1.12.786.3.224.555.502.753.82.2.336.303.722.296 1.113.008.463-.13.918-.392 1.299-.274.39-.649.696-1.084.886a3.677 3.677 0 0 1-1.547.312 5.335 5.335 0 0 1-1.316-.17 2.402 2.402 0 0 1-.924-.389.503.503 0 0 1-.105-.105.262.262 0 0 1-.035-.161l-.04-2.23c0-.036 0-.056.07-.061.07-.005.07 0 .08.045.281.574.527 1.037.738 1.39.208.358.477.676.794.941.305.265.696.41 1.1.408a1.4 1.4 0 0 0 .924-.302 1.28 1.28 0 0 0 .366-1.007 2.085 2.085 0 0 0-.276-1.077 2.905 2.905 0 0 0-.658-.831 14.448 14.448 0 0 0-1.08-.77 10.44 10.44 0 0 1-1.04-.746 2.837 2.837 0 0 1-.637-.74 1.952 1.952 0 0 1-.266-1.007 1.886 1.886 0 0 1 .427-1.253 2.566 2.566 0 0 1 1.09-.78c.452-.163.93-.244 1.41-.242.338 0 .674.03 1.005.09.278.044.55.117.814.217a.347.347 0 0 1 .165.12c.03.049.044.105.04.162v2.059c0 .03 0 .05-.065.065s-.075 0-.085 0l-.116-.267a6.047 6.047 0 0 0-.818-1.51 1.549 1.549 0 0 0-1.306-.62 1.324 1.324 0 0 0-.919.323 1.21 1.21 0 0 0-.377.921c-.01.321.077.638.252.907Zm11.52 4.194a.136.136 0 0 1 .075 0s.035 0 .035.03c-.088.668-.135 1.34-.14 2.014a.232.232 0 0 1-.04.161.21.21 0 0 1-.166.05h-6.187c-.03 0-.045-.03-.045-.085 0-.056 0-.08.045-.08a2.25 2.25 0 0 0 .648-.071.442.442 0 0 0 .276-.277 2.1 2.1 0 0 0 .07-.624v-6.49a2.067 2.067 0 0 0-.07-.62.444.444 0 0 0-.282-.271 2.046 2.046 0 0 0-.642-.076c-.03 0-.045-.03-.045-.085 0-.056 0-.086.045-.086h5.95c.096 0 .141.045.141.126l.03 1.868s-.025.035-.08.04c-.055.005-.08 0-.09-.025a2.14 2.14 0 0 0-.754-1.209 2.31 2.31 0 0 0-1.4-.392h-.418a.887.887 0 0 0-.617.181.747.747 0 0 0-.196.564v2.86h1.16c.433.027.865-.07 1.245-.277a.89.89 0 0 0 .437-.786c0-.03.025-.045.076-.045.05 0 .075.015.075.045v1.934c0 .317.03.569.03.76 0 0-.03.025-.085.025-.056 0-.086 0-.086-.025a1.064 1.064 0 0 0-.437-.906 2.09 2.09 0 0 0-1.29-.307h-1.145v3.171a.953.953 0 0 0 .156.604.58.58 0 0 0 .502.197h.462a3.061 3.061 0 0 0 1.732-.448c.47-.341.81-.83.97-1.39 0 0 .014-.055.055-.055Zm1.441-4.014c0 .03-.04.04-.085.036-.045-.005-.07 0-.07-.045.04-.378.08-.861.125-1.455.045-.595.07-1.038.07-1.34 0-.045.026-.07.08-.07.056 0 .076 0 .076.07 0 .207.266.307.799.307.803.03 1.737.046 2.812.046.547 0 1.135 0 1.748-.03h.954c.259.01.52-.013.773-.07a.418.418 0 0 0 .316-.278c0-.04.041-.055.091-.055.05 0 .075 0 .075.055-.025.277-.055.73-.09 1.344a26.366 26.366 0 0 0-.045 1.51s-.026.041-.071.041-.075 0-.085-.04a2.93 2.93 0 0 0-.784-1.621 1.969 1.969 0 0 0-1.416-.544.659.659 0 0 0-.537.176 1.187 1.187 0 0 0-.131.67v6.43c-.012.214.016.429.081.633a.502.502 0 0 0 .321.267c.249.056.504.08.758.07.031 0 .041.026.041.081 0 .056 0 .086-.041.086h-3.901c-.03 0-.046-.03-.046-.086 0-.055 0-.08.046-.08.25.007.502-.016.748-.07a.502.502 0 0 0 .331-.278c.076-.199.108-.411.096-.624v-6.495a1.18 1.18 0 0 0-.126-.644.642.642 0 0 0-.502-.171c-1.122 0-1.925.725-2.41 2.175Zm14.25-.18c.173.263.389.496.638.69.251.196.592.432 1.004.714.387.242.761.504 1.12.786.285.228.527.506.713.82.2.336.303.722.297 1.113.007.463-.13.917-.392 1.299a2.6 2.6 0 0 1-1.085.886 3.68 3.68 0 0 1-1.547.312 5.324 5.324 0 0 1-1.315-.17 2.44 2.44 0 0 1-.924-.389.494.494 0 0 1-.106-.105.31.31 0 0 1-.035-.162l-.04-2.23c0-.035 0-.055.07-.06.07-.005.075 0 .08.045.282.574.528 1.037.739 1.39.211.357.481.675.798.941.303.265.693.41 1.095.408a1.39 1.39 0 0 0 .924-.302 1.267 1.267 0 0 0 .367-1.007 2.026 2.026 0 0 0-.277-1.077 2.889 2.889 0 0 0-.663-.791 14.42 14.42 0 0 0-1.079-.77 10.35 10.35 0 0 1-1.04-.745 2.946 2.946 0 0 1-.638-.74 1.955 1.955 0 0 1-.266-1.007 1.886 1.886 0 0 1 .427-1.254 2.566 2.566 0 0 1 1.1-.76c.46-.187.95-.29 1.446-.302.337 0 .673.03 1.005.09.278.044.55.116.813.217a.324.324 0 0 1 .166.12.264.264 0 0 1 .045.162v2.059c0 .03-.025.05-.07.065-.045.015-.076 0-.086 0l-.11-.267a6.383 6.383 0 0 0-.819-1.51 1.552 1.552 0 0 0-1.31-.62 1.304 1.304 0 0 0-.914.323 1.206 1.206 0 0 0-.362.941c-.011.312.07.62.231.887Zm7.319 6.012a4.208 4.208 0 0 1-1.566-1.657 4.808 4.808 0 0 1-.553-2.276 4.202 4.202 0 0 1 .733-2.482 4.589 4.589 0 0 1 1.868-1.55 5.562 5.562 0 0 1 2.331-.504 4.342 4.342 0 0 1 2.33.614 4.215 4.215 0 0 1 1.541 1.647c.358.668.544 1.416.543 2.175a4.31 4.31 0 0 1-.673 2.34 4.83 4.83 0 0 1-1.798 1.687 5.013 5.013 0 0 1-2.436.64 4.41 4.41 0 0 1-2.32-.634Zm4.189-.197a2.93 2.93 0 0 0 .954-1.334c.251-.669.37-1.38.351-2.095a6.413 6.413 0 0 0-.351-2.285 3.587 3.587 0 0 0-1.135-1.591 2.745 2.745 0 0 0-1.733-.574 2.258 2.258 0 0 0-1.958.961 4.534 4.534 0 0 0-.698 2.659 6.72 6.72 0 0 0 .411 2.436c.23.647.621 1.224 1.135 1.677a2.48 2.48 0 0 0 1.632.604 2.31 2.31 0 0 0 1.392-.458Zm12.36.553c0 .056 0 .086-.045.086h-2.114c-.08 0-.246-.192-.502-.574a15.853 15.853 0 0 1-.849-1.586 19.14 19.14 0 0 1-.929-2.23 2.048 2.048 0 0 1-.291 0h-.869v3.252c-.01.214.015.429.075.634a.45.45 0 0 0 .297.267c.235.057.476.08.718.07 0 0 .03.026.03.081 0 .056 0 .086-.03.086h-3.551c-.03 0-.045-.03-.045-.086 0-.055 0-.08.045-.08.219.008.437-.015.648-.07a.444.444 0 0 0 .281-.278 1.91 1.91 0 0 0 .076-.624V12.43a1.905 1.905 0 0 0-.071-.62.435.435 0 0 0-.276-.271 2.058 2.058 0 0 0-.648-.075s-.025-.03-.025-.086c0-.056 0-.086.025-.086h.744c.426 0 .768.03 1.004.03s.572 0 .899-.045l.397-.025h.582a3.594 3.594 0 0 1 2.009.468 1.51 1.51 0 0 1 .708 1.314 2.2 2.2 0 0 1-.442 1.3 3.288 3.288 0 0 1-1.125.971 21.716 21.716 0 0 0 1.908 3.524c.503.705.96 1.063 1.321 1.063.03.005.045.03.045.085Zm-4.675-4.657c.275.014.549-.04.799-.156a.9.9 0 0 0 .426-.503 3.47 3.47 0 0 0 .131-1.068 2.692 2.692 0 0 0-.337-1.586 1.128 1.128 0 0 0-.964-.433 1.057 1.057 0 0 0-.748.207.951.951 0 0 0-.179.33.948.948 0 0 0-.037.374v2.805c.302.033.606.043.909.03Zm14.445 4.657c0 .056 0 .086-.031.086h-2.51c-.206 0-.588-.388-1.145-1.158a35.347 35.347 0 0 1-2.009-3.232 2.662 2.662 0 0 1-.327 0h-.768v3.252a2.12 2.12 0 0 0 .07.634.434.434 0 0 0 .272.267c.213.055.432.08.652.07 0 0 .03.026.03.081 0 .056 0 .086-.03.086h-3.555s-.04-.03-.04-.086c0-.055 0-.08.04-.08.22.009.44-.015.653-.07a.46.46 0 0 0 .281-.278 1.91 1.91 0 0 0 .075-.624V12.43a2.054 2.054 0 0 0-.07-.62.429.429 0 0 0-.281-.271 2.007 2.007 0 0 0-.643-.075s-.025-.03-.025-.086c0-.056 0-.086.025-.086h.743c.427 0 .769.03 1.005.03.236 0 .572 0 .898-.045l.397-.025h.583a3.59 3.59 0 0 1 2.008.468 1.505 1.505 0 0 1 .709 1.314 2.202 2.202 0 0 1-.392 1.234 3.066 3.066 0 0 1-1.005.956c.75 1.179 1.378 2.1 1.884 2.764.388.54.844 1.027 1.356 1.45.324.276.73.437 1.155.459 0 0-.005.025-.005.08Zm-5.976-4.657c.274.014.548-.04.798-.156a.901.901 0 0 0 .427-.503 3.5 3.5 0 0 0 .13-1.068 2.691 2.691 0 0 0-.336-1.586 1.139 1.139 0 0 0-.964-.433.893.893 0 0 0-.673.207 1.01 1.01 0 0 0-.196.704v2.805c.27.03.542.04.814.03Zm12.805 2.483a.153.153 0 0 1 .076 0c.025 0 .035 0 .035.03a15.42 15.42 0 0 0-.141 2.014.254.254 0 0 1-.04.161.217.217 0 0 1-.171.05h-6.172c-.03 0-.045-.03-.045-.085 0-.056 0-.08.045-.08.219.008.437-.016.648-.071a.426.426 0 0 0 .271-.277c.057-.203.081-.414.071-.624v-6.49a1.906 1.906 0 0 0-.071-.62.422.422 0 0 0-.276-.271 2.048 2.048 0 0 0-.643-.076c-.03 0-.045-.03-.045-.085 0-.056 0-.086.045-.086h5.931c.096 0 .141.045.141.126l.025 1.868s-.025.035-.075.04c-.051.005-.081 0-.091-.025a2.165 2.165 0 0 0-.753-1.209 2.31 2.31 0 0 0-1.411-.397h-.422a.884.884 0 0 0-.613.181.76.76 0 0 0-.196.564v2.86h1.16a2.32 2.32 0 0 0 1.246-.277.886.886 0 0 0 .432-.786c0-.03.025-.045.08-.045s.075 0 .075.045v1.934c0 .317.031.569.031.76 0 0-.031.025-.086.025-.055 0-.085 0-.085-.025a1.067 1.067 0 0 0-.442-.906 2.06 2.06 0 0 0-1.266-.333h-1.145v3.172c-.014.212.038.424.151.604a.588.588 0 0 0 .502.197h.462a3.06 3.06 0 0 0 1.748-.448 2.59 2.59 0 0 0 .964-1.39s.01-.025.05-.025Zm10.874-6.425c0 .055 0 .085-.03.085a1.002 1.002 0 0 0-.879.444 1.95 1.95 0 0 0-.321 1.183v7.164s-.025.045-.065.056a.093.093 0 0 1-.091 0l-6.563-7.487v5.458c-.024.415.083.827.306 1.178a1.008 1.008 0 0 0 .854.438s.03.025.03.08c0 .056 0 .086-.03.086h-2.908c-.03 0-.045-.03-.045-.086 0-.055 0-.08.045-.08a1.18 1.18 0 0 0 .969-.438c.256-.338.382-.756.357-1.178v-5.936a3.545 3.545 0 0 0-.789-.695 1.35 1.35 0 0 0-.678-.187s-.03-.03-.03-.085c0-.056 0-.086.03-.086h2.657a.251.251 0 0 1 .171.056l.196.241c.155.217.271.358.336.433l4.841 5.599v-4.531a2.024 2.024 0 0 0-.311-1.193 1.004 1.004 0 0 0-.854-.434v-.171h.603c.301 0 .552.03.758.03.206 0 .447 0 .783-.03h.628s.03.03.03.086Zm.852 2.411c0 .03-.04.04-.085.036-.045-.005-.07 0-.07-.045.035-.378.08-.861.125-1.455.045-.595.071-1.038.071-1.34 0-.045.025-.07.075-.07.05 0 .08 0 .08.07 0 .207.266.307.799.307.798.03 1.737.046 2.812.046.549 0 1.132-.01 1.748-.03h.949c.261.011.523-.013.778-.07a.418.418 0 0 0 .316-.278c0-.04.041-.055.091-.055.05 0 .075 0 .075.055-.025.277-.055.73-.09 1.344-.035.615-.05 1.113-.05 1.51 0 0 0 .041-.071.041-.07 0-.07 0-.08-.04a2.93 2.93 0 0 0-.784-1.621 1.969 1.969 0 0 0-1.416-.544.648.648 0 0 0-.537.176 1.187 1.187 0 0 0-.131.67v6.43c-.011.214.016.429.081.633a.492.492 0 0 0 .321.267c.249.056.504.08.758.07 0 0 .041.026.041.081 0 .056 0 .086-.041.086h-3.907c-.025 0-.04-.03-.04-.086 0-.055 0-.08.04-.08a3.04 3.04 0 0 0 .749-.07.5.5 0 0 0 .336-.278c.071-.2.102-.412.091-.624v-6.495a1.144 1.144 0 0 0-.126-.644.622.622 0 0 0-.502-.171c-1.118 0-1.92.725-2.406 2.175Zm10.836 5.831a4.148 4.148 0 0 1-1.567-1.656 4.746 4.746 0 0 1-.552-2.276 4.162 4.162 0 0 1 .728-2.482 4.52 4.52 0 0 1 1.868-1.55 5.541 5.541 0 0 1 2.33-.504 4.339 4.339 0 0 1 2.336.624c.649.397 1.18.962 1.536 1.636.354.67.538 1.417.538 2.175a4.274 4.274 0 0 1-.673 2.342 4.794 4.794 0 0 1-1.798 1.686 4.966 4.966 0 0 1-2.431.64 4.39 4.39 0 0 1-2.315-.635Zm4.183-.196a2.94 2.94 0 0 0 .99-1.334c.246-.67.363-1.381.346-2.095a6.39 6.39 0 0 0-.392-2.31 3.607 3.607 0 0 0-1.129-1.592 2.765 2.765 0 0 0-1.738-.574 2.258 2.258 0 0 0-1.959.962 4.537 4.537 0 0 0-.682 2.684 6.72 6.72 0 0 0 .411 2.436 4.03 4.03 0 0 0 1.125 1.677 2.477 2.477 0 0 0 1.632.604c.498 0 .982-.16 1.381-.458h.015ZM92.87 32.52v.045h-1.29c-.125 0-.351-.221-.688-.67-.336-.447-.743-1.072-1.22-1.877a1.576 1.576 0 0 1-.266 0h-.417V31.9c-.006.122.01.245.045.362a.24.24 0 0 0 .166.151 1.5 1.5 0 0 0 .397.04v.096h-2.034v-.095c.133.005.267-.01.397-.04a.27.27 0 0 0 .175-.157c.035-.116.05-.236.045-.357v-3.726a1.183 1.183 0 0 0-.04-.352.277.277 0 0 0-.175-.157 1.257 1.257 0 0 0-.392-.045v-.096h2.019c.383-.024.765.069 1.094.267a.84.84 0 0 1 .387.745c0 .256-.08.506-.226.715a1.693 1.693 0 0 1-.582.55c.436.674.803 1.202 1.1 1.59.228.31.494.589.793.83.19.158.426.248.673.258 0 0 .04.005.04.04Zm-3.444-2.699a.875.875 0 0 0 .678-.221c.152-.236.22-.517.19-.796a1.397 1.397 0 0 0-.215-.901.759.759 0 0 0-.613-.257.553.553 0 0 0-.397.161.63.63 0 0 0-.105.423v1.591c.154.012.308.012.462 0Zm8.104 1.475h.046c-.052.37-.079.744-.08 1.118.01.031.01.064 0 .096a.144.144 0 0 1-.096 0h-3.485v-.096a1.5 1.5 0 0 0 .402-.04.255.255 0 0 0 .166-.156c.035-.116.05-.237.045-.358v-3.726a1.01 1.01 0 0 0-.046-.352.266.266 0 0 0-.17-.156 1.271 1.271 0 0 0-.397-.045v-.096h3.34c.055 0 .08 0 .08.07v1.048h-.095a1.038 1.038 0 0 0-1.115-.917h-.322a.617.617 0 0 0-.406.106.444.444 0 0 0-.121.353v1.64h.768c.588 0 .884-.195.884-.593 0 0 0-.025.045-.025.046 0 .04 0 .04.025v1.551h-.1c0-.459-.296-.69-.899-.69h-.758v1.822a.506.506 0 0 0 .1.373c.101.08.229.117.357.106h.392A1.299 1.299 0 0 0 97.5 31.33s.01-.035.03-.035Zm2.703-2.376c.105.154.236.288.387.398.145.11.346.246.597.402.251.157.503.318.648.443.161.126.297.28.402.454.11.19.166.408.161.629.003.26-.07.516-.211.735-.15.221-.359.396-.603.503a2.056 2.056 0 0 1-.884.182 3.112 3.112 0 0 1-.698-.086 1.669 1.669 0 0 1-.537-.216.19.19 0 0 1-.08-.156l-.05-1.224c0-.005 0-.01.002-.015a.035.035 0 0 1 .037-.02.04.04 0 0 1 .05 0c.147.393.35.763.603 1.097a1.08 1.08 0 0 0 .874.423.894.894 0 0 0 .578-.186.77.77 0 0 0 .231-.634 1.178 1.178 0 0 0-.156-.62 1.632 1.632 0 0 0-.387-.443c-.15-.115-.361-.261-.622-.433a8.4 8.4 0 0 1-.603-.422 1.662 1.662 0 0 1-.367-.424 1.15 1.15 0 0 1-.15-.594 1.084 1.084 0 0 1 .23-.704c.16-.198.37-.348.608-.433a2.14 2.14 0 0 1 .779-.141c.183.001.366.018.547.05.157.027.31.073.457.136a.155.155 0 0 1 .095.06.174.174 0 0 1 0 .091l.026 1.098-.046.035c-.045.035-.045 0-.05 0a3.65 3.65 0 0 0-.432-.891.904.904 0 0 0-.803-.398.789.789 0 0 0-.578.211.763.763 0 0 0-.211.569c0 .186.054.368.156.524Zm4.29-.91a1.94 1.94 0 0 0-.502.915h-.091c0-.211.045-.503.07-.81.026-.307.041-.574.041-.74 0-.03 0-.04.045-.04s.045 0 .045.04c0 .116.151.176.447.176h3.169c.15.004.3-.01.447-.04a.266.266 0 0 0 .185-.177.05.05 0 0 1 .011-.011.04.04 0 0 1 .03-.008c.025 0 .04 0 .04.035 0 .167-.015.42-.045.755 0 .337-.025.609-.025.82h-.096a1.515 1.515 0 0 0-.376-.91 1.293 1.293 0 0 0-1.14-.258.245.245 0 0 0-.141.14.999.999 0 0 0-.035.319v3.71c-.006.123.009.245.045.363a.264.264 0 0 0 .078.098.266.266 0 0 0 .113.053c.152.03.307.044.462.04v.096h-2.16v-.096c.155.004.311-.01.462-.04a.284.284 0 0 0 .201-.156.926.926 0 0 0 .056-.358V28.2a.913.913 0 0 0-.041-.307.278.278 0 0 0-.145-.136 1.006 1.006 0 0 0-.322-.04 1.124 1.124 0 0 0-.828.292Zm10.234 4.51c0 .03 0 .045-.04.045h-1.903s-.03 0-.03-.045c0-.046 0-.05.03-.05a.82.82 0 0 0 .341-.051.174.174 0 0 0 .083-.07.18.18 0 0 0 .028-.106 1.167 1.167 0 0 0-.09-.408l-.869-1.762h-1.452l-.617 1.39a1.108 1.108 0 0 0-.106.437.508.508 0 0 0 .201.423.96.96 0 0 0 .563.146c.025 0 .04 0 .04.05s0 .046-.04.046h-1.879c-.025 0-.04 0-.04-.045 0-.046 0-.05.04-.05a.721.721 0 0 0 .377-.091.865.865 0 0 0 .296-.318c.131-.218.246-.445.347-.68l1.722-3.891a.094.094 0 0 1 .035-.02c.013-.005.027-.007.041-.005a.07.07 0 0 1 .065.025l1.964 3.972c.123.283.28.55.467.796a.533.533 0 0 0 .406.211c.005 0 .02.015.02.05Zm-3.836-2.649h1.25l-.668-1.349-.582 1.35Zm8.71-2.003a.648.648 0 0 0-.542-.232v-.095h1.657v.095a.564.564 0 0 0-.502.232 1.074 1.074 0 0 0-.171.654v2.251c.009.352-.076.7-.246 1.007a1.652 1.652 0 0 1-.688.664c-.32.163-.676.244-1.035.237a2.306 2.306 0 0 1-1.039-.231 1.669 1.669 0 0 1-.713-.66 1.98 1.98 0 0 1-.251-1.007V28.19a.898.898 0 0 0-.05-.352.264.264 0 0 0-.171-.156 1.199 1.199 0 0 0-.387-.046s-.025 0-.025-.05 0-.045.025-.045h1.979s.025 0 .025.045 0 .05-.025.05a1.199 1.199 0 0 0-.387.046.32.32 0 0 0-.176.166 1.08 1.08 0 0 0-.045.357v2.296a2.162 2.162 0 0 0 .397 1.425 1.358 1.358 0 0 0 1.11.473 1.374 1.374 0 0 0 1.069-.423c.274-.335.41-.761.382-1.193v-2.26a1.008 1.008 0 0 0-.191-.655Zm7.666 4.652c0 .03 0 .045-.025.045h-1.291c-.121 0-.352-.221-.683-.67a23.96 23.96 0 0 1-1.225-1.877 1.546 1.546 0 0 1-.267 0h-.416V31.9c-.006.122.009.245.045.362a.242.242 0 0 0 .171.151c.129.032.263.046.396.04v.096h-1.998s-.025 0-.025-.045 0-.05.025-.05c.133.004.266-.01.396-.04a.266.266 0 0 0 .171-.157.924.924 0 0 0 .05-.357v-3.726a1.001 1.001 0 0 0-.045-.352.268.268 0 0 0-.171-.156 1.27 1.27 0 0 0-.396-.046v-.095h2.018a1.88 1.88 0 0 1 1.1.267.854.854 0 0 1 .387.745 1.26 1.26 0 0 1-.226.715 1.754 1.754 0 0 1-.563.538c.442.675.809 1.203 1.105 1.591.226.31.491.59.789.83.191.157.427.247.673.258 0 0 .005.015.005.05Zm-3.44-2.699a.857.857 0 0 0 .673-.221 1.2 1.2 0 0 0 .195-.786 1.396 1.396 0 0 0-.215-.9.746.746 0 0 0-.608-.258.543.543 0 0 0-.397.116.601.601 0 0 0-.11.423v1.627c.153.011.308.011.462 0Zm9.904 2.699c0 .03 0 .045-.04.045h-1.903s-.03 0-.03-.045c0-.046 0-.05.03-.05a.839.839 0 0 0 .341-.051.183.183 0 0 0 .106-.176 1.176 1.176 0 0 0-.136-.408l-.864-1.762h-1.456l-.618 1.39a1.183 1.183 0 0 0-.1.438.507.507 0 0 0 .201.422.942.942 0 0 0 .557.146c.03 0 .04 0 .04.05 0 .051 0 .046-.04.046h-1.843c-.03 0-.04 0-.04-.045 0-.046 0-.05.04-.05a.749.749 0 0 0 .377-.091.866.866 0 0 0 .296-.317c.13-.22.246-.446.347-.68l1.722-3.892a.087.087 0 0 1 .032-.02.089.089 0 0 1 .038-.005c.041 0 .061 0 .066.025l1.968 3.972c.124.283.281.55.467.796a.552.552 0 0 0 .407.211c.005 0 .035.015.035.05Zm-3.836-2.649h1.265l-.663-1.349-.602 1.35Zm10.366-2.285v.05a.584.584 0 0 0-.502.227c-.128.195-.19.426-.176.66v4.158l-.04.03a.062.062 0 0 1-.028.007.058.058 0 0 1-.027-.007l-3.767-4.38v3.273c-.013.229.047.456.171.65a.571.571 0 0 0 .502.226v.095h-1.657v-.095a.66.66 0 0 0 .537-.227c.135-.188.201-.418.186-.65V28.08a1.69 1.69 0 0 0-.402-.337.775.775 0 0 0-.376-.096v-.095h1.35a.136.136 0 0 1 .096.03c.036.04.068.084.095.13.091.122.161.207.201.258l2.883 3.408v-2.855a1.09 1.09 0 0 0-.171-.66.561.561 0 0 0-.502-.226v-.095h1.541s.086.015.086.045Zm1.779.424c-.248.253-.422.57-.503.915h-.09c0-.211.045-.503.07-.81.025-.307.041-.574.041-.74 0-.03 0-.04.045-.04s.045 0 .045.04c0 .116.151.176.447.176h3.189c.15.004.3-.01.447-.04a.266.266 0 0 0 .185-.177.036.036 0 0 1 .011-.011.04.04 0 0 1 .03-.008c.025 0 .04 0 .04.035 0 .167-.015.42-.045.755 0 .337-.026.609-.026.82h-.095a1.51 1.51 0 0 0-.377-.91 1.284 1.284 0 0 0-1.14-.258.229.229 0 0 0-.14.14 1.01 1.01 0 0 0-.04.318v3.711a.991.991 0 0 0 .05.363.258.258 0 0 0 .191.151c.152.03.307.044.462.04v.096h-2.195v-.096c.155.004.31-.01.462-.04a.29.29 0 0 0 .201-.156.907.907 0 0 0 .055-.358V28.2a.888.888 0 0 0-.04-.307.278.278 0 0 0-.145-.136 1.006 1.006 0 0 0-.322-.04 1.126 1.126 0 0 0-.813.292Z"/><path fill="url(#a)" d="M24.67 17.41c.031-.496.095-.99.19-1.477.08-.417.181-.83.305-1.235a7.473 7.473 0 0 1 2.994-4.262 7.448 7.448 0 0 1 3.457-1.27h.143A7.384 7.384 0 0 0 36.3 7.02c.244-.247.469-.511.676-.79a19.62 19.62 0 0 1-2.09 4.89c-.246.41-.46.736-.71 1.097a19.706 19.706 0 0 1-3.742 4 11.842 11.842 0 0 0 2.974-.934 11.846 11.846 0 0 1-6.636 3.281c-.256.039-.513.068-.772.088a7.495 7.495 0 0 1 2.173-5.496 7.62 7.62 0 0 1 .908-.774 7.448 7.448 0 0 0-4.155 4.234c-.099.26-.184.525-.256.794ZM6.528 37.395a7.384 7.384 0 0 1 5.215-2.923h.143a7.448 7.448 0 0 0 3.46-1.272 7.472 7.472 0 0 0 2.43-2.777c.24-.473.43-.97.564-1.483.124-.406.226-.818.305-1.236.096-.49.16-.986.192-1.486a7.09 7.09 0 0 1-.253.771 7.448 7.448 0 0 1-4.155 4.234c.322-.234.626-.492.908-.774a7.48 7.48 0 0 0 2.176-5.482 11.869 11.869 0 0 0-7.405 3.378 11.844 11.844 0 0 1 2.962-.956 19.794 19.794 0 0 0-3.743 4.013 19.852 19.852 0 0 0-1.401 2.347 19.618 19.618 0 0 0-1.398 3.646ZM6.205 6.552a7.419 7.419 0 0 1 2.916 5.229v.139a7.491 7.491 0 0 0 1.27 3.467 7.466 7.466 0 0 0 2.77 2.435c.474.241.972.431 1.486.565.405.125.816.227 1.233.306.489.096.984.16 1.482.192a6.978 6.978 0 0 1-1.388-.517 7.451 7.451 0 0 1-3.626-3.902 7.457 7.457 0 0 0 6.256 3.092 11.1 11.1 0 0 0-.087-.774 11.9 11.9 0 0 0-3.273-6.65c.446.944.767 1.942.954 2.97a19.569 19.569 0 0 0-1.395-1.555 19.472 19.472 0 0 0-2.595-2.198c-.36-.25-.723-.488-1.093-.712a19.508 19.508 0 0 0-4.878-2.094l-.032.006Zm21.082 19.836a7.443 7.443 0 0 0-2.384-.326 11.922 11.922 0 0 0 3.37 7.43 11.921 11.921 0 0 1-.954-2.968 19.992 19.992 0 0 0 3.989 3.752c.36.25.724.488 1.093.712.37.225.827.478 1.25.693a19.508 19.508 0 0 0 3.648 1.388 7.594 7.594 0 0 1-.775-.68 7.418 7.418 0 0 1-2.14-4.552v-.14a7.491 7.491 0 0 0-1.27-3.466 7.466 7.466 0 0 0-2.769-2.435 7.345 7.345 0 0 0-1.479-.566 11.551 11.551 0 0 0-1.232-.306 11.41 11.41 0 0 0-1.483-.192 6.905 6.905 0 0 1 1.388.517 7.452 7.452 0 0 1 3.627 3.902 7.398 7.398 0 0 0-3.88-2.767v.004ZM0 22.033c.34-.045.682-.068 1.025-.068a7.397 7.397 0 0 1 4.726 1.698 7.451 7.451 0 0 0 7.09 1.398 7.413 7.413 0 0 0 1.453-.65c.373-.202.736-.42 1.086-.65a12.52 12.52 0 0 0 1.184-.918 7.693 7.693 0 0 1-1.35.621 7.442 7.442 0 0 1-5.29-.182 7.393 7.393 0 0 0 4.69-.784 7.522 7.522 0 0 0 1.927-1.466c-.198-.17-.399-.325-.606-.485a11.85 11.85 0 0 0-7.025-2.37 11.72 11.72 0 0 1 2.766 1.421 19.46 19.46 0 0 0-8.121.852A19.16 19.16 0 0 0 0 22.034Zm27.656-1.648a7.443 7.443 0 0 1 5.926-.049 7.393 7.393 0 0 0-4.69.8 7.522 7.522 0 0 0-1.91 1.467 11.851 11.851 0 0 0 7.616 2.855 11.722 11.722 0 0 1-2.767-1.421c.691.073 1.386.11 2.082.11a19.442 19.442 0 0 0 4.66-.585 19.292 19.292 0 0 0 4.94-1.977 7.396 7.396 0 0 1-5.75-1.63 7.452 7.452 0 0 0-7.123-1.421c-.505.166-.99.384-1.45.651-.373.202-.736.42-1.086.65-.413.286-.808.597-1.184.93.239-.14.484-.266.736-.38Zm-8.108 11.527a19.593 19.593 0 0 0 .85 8.136 19.393 19.393 0 0 0 1.58 3.577 7.693 7.693 0 0 1-.069-1.028 7.438 7.438 0 0 1 1.693-4.737 7.488 7.488 0 0 0 .746-8.568 14.605 14.605 0 0 0-.649-1.09 12.568 12.568 0 0 0-.905-1.213c.14.24.267.488.38.741a7.497 7.497 0 0 1 .049 5.94c.062-.392.094-.79.094-1.189a7.442 7.442 0 0 0-2.339-5.427 11.921 11.921 0 0 0-2.848 7.635c.348-.984.824-1.918 1.418-2.777ZM21.53 0c.046.34.07.684.07 1.028a7.438 7.438 0 0 1-1.695 4.737 7.488 7.488 0 0 0-.769 8.591c.201.374.418.738.649 1.09.28.413.586.81.914 1.187a7.671 7.671 0 0 1-.62-1.353 7.497 7.497 0 0 1 .192-5.33 7.59 7.59 0 0 0-.094 1.19 7.442 7.442 0 0 0 .905 3.512 7.54 7.54 0 0 0 1.447 1.932 11.92 11.92 0 0 0 2.848-7.635 11.771 11.771 0 0 1-1.418 2.757 19.694 19.694 0 0 0-.185-5.489 19.976 19.976 0 0 0-.665-2.653A19.264 19.264 0 0 0 21.53 0Z"/><defs><linearGradient id="a" x1="21.753" x2="21.753" y1=".338" y2="43.956" gradientUnits="userSpaceOnUse"><stop stop-color="#EE4224"/><stop offset=".05" stop-color="#E94925"/><stop offset=".29" stop-color="#D36528"/><stop offset=".53" stop-color="#C47A2B"/><stop offset=".77" stop-color="#BB862C"/><stop offset="1" stop-color="#B88A2D"/></linearGradient></defs></svg>