<svg xmlns="http://www.w3.org/2000/svg" width="58" height="60" fill="none"><g stroke="#B68C2D" stroke-miterlimit="10" clip-path="url(#a)"><path d="M44.28 34.776c-3.653 4.83-9.672 12.666-10.532 23.4 0 .429-.215.75-.537.965-.323.215-.645.43-1.075.43h-6.664c-.43 0-.752-.108-1.075-.43-.322-.214-.43-.644-.537-.966-.752-10.733-10.318-23.399-10.318-23.399"/><path d="m30.523 30.805-.107 11.806c0 .323.107.645.322.967.215.322.43.429.753.536.322.108.645.108.967 0 .323-.107.645-.322.753-.536l8.92-11.163m-25.901-.859 8.168 12.129c.215.215.537.43.752.537a1.5 1.5 0 0 0 .968 0c.322-.108.537-.322.752-.537.215-.322.322-.537.322-.966l.108-11.807"/><path d="M7.093 14.705c-.215.322-.537.644-.86.752-1.612.536-3.116 1.717-4.084 3.22C1.074 20.179.537 22.004.537 23.829c0 8.372 2.687 12.45 8.383 12.558 1.398 0 2.687-.43 3.87-1.074.752-.429 1.397-.966 2.042-1.61 1.612-1.717 2.472-3.97 2.472-6.332 0-.322.107-.752.322-1.074.323-.322.645-.536.967-.644.323-.107.753-.107 1.075.108.323.214.538.536.753.858 1.182 2.684 4.514 4.401 8.49 4.401 3.87 0 7.202-1.717 8.491-4.4.215-.323.43-.537.645-.752.215-.107.538-.215.86-.215h.43c.43.108.752.322.967.644.215.322.323.644.323 1.074 0 2.361.86 4.615 2.472 6.332 1.612 1.61 3.654 2.576 5.911 2.576 4.3 0 8.383-6.01 8.168-12.45-.107-1.825-.645-3.65-1.612-5.152a9.14 9.14 0 0 0-4.084-3.22c-.322-.215-.645-.43-.86-.752-.107-.322-.215-.644-.215-1.073v-.322c0-.751-.107-1.503-.322-2.147-.215-.751-.645-1.288-1.075-1.824-.43-.537-.967-.86-1.612-1.181-.645-.322-1.29-.43-1.935-.43-1.182 0-2.364.43-3.224 1.289-.108.214-.43.322-.645.429a.92.92 0 0 1-.752 0c-.215-.107-.43-.215-.645-.43-.215-.107-.323-.429-.43-.643a12.038 12.038 0 0 0-4.3-5.69C33.534 1.289 31.277.538 28.913.538c-2.365 0-4.622.751-6.557 2.147-1.934 1.395-3.439 3.434-4.299 5.689-.107.214-.215.429-.43.644-.215.214-.537.322-.752.429a.92.92 0 0 1-.752 0c-.215-.107-.43-.215-.645-.43-.86-.858-2.042-1.287-3.225-1.287-1.29 0-2.58.644-3.547 1.61C7.738 10.305 7 13.605 7 15"/></g><defs><clipPath id="a"><path fill="#fff" d="M0 0h57.931v60H0z"/></clipPath></defs></svg>