<svg xmlns="http://www.w3.org/2000/svg" width="60" height="62" fill="none"><path stroke="#B68C2D" stroke-miterlimit="10" d="M27.463 38.019c.65.434.65 2.385 1.084 3.035 0 .217.217.434.217.65h3.47c1.519.217 3.037.868 4.122 1.735 6.073-4.336 13.882-5.203 20.823-2.385 1.084.434 1.952 1.301 2.169 2.385.217 1.084.217 2.385-.434 3.252-1.518 2.168-3.47 3.902-5.64 5.203h.217c.868.434 1.519 1.301 1.519 2.385a2.822 2.822 0 0 1-1.085 2.819c-2.386 2.168-5.64 3.468-8.893 3.902h-1.518c-2.614 0-6.245-.71-8.514-2m-7.537-20.981c.216-.434 0 .434 0 0Zm0 0c1.518-.65 2.82-1.951 3.253-3.686.217-.216.217-.65.217-1.084 2.603 0 5.206-1.084 7.375-2.601 4.555-3.686 5.856-9.973 3.037-15.176-1.519-2.819-3.47-5.42-5.857-7.805-2.169-2.168-4.772-4.12-7.375-5.854a5.296 5.296 0 0 0-5.64 0L9.894 9.618c-1.301.867-2.169 2.168-2.386 3.685 0 .65 0 1.518.217 2.168l-5.856 8.673c-.868 1.3-1.085 3.035-.651 4.553l.217.433C1 31.95 1 34.984 1.65 37.802c0 .217.217.434.217.65.65 2.819 2.603 5.204 5.205 6.505.434.433 1.085.65 1.519.65.867 2.385 2.603 4.77 4.555 6.287l.434.434c1.301.867 2.602 1.3 4.12 1.3h.868c.217 0 0 .218 0 .218 1.519 1.95 3.47 3.685 5.64 4.77 1.085.65 2.17 1.083 3.47 1.517.868.217 1.953.433 2.82.433 1.519 0 3.254-.433 4.555-1.3"/><path stroke="#B68C2D" stroke-miterlimit="10" d="M7.724 15.688c2.82 3.036 6.724 6.504 11.28 9.973 4.337 3.252 8.675 5.854 12.146 7.588M1.434 29.13c3.254 1.951 7.375 3.902 12.364 5.637 5.205 1.734 9.978 2.601 13.665 3.252M8.592 45.608c3.037-.217 6.94-.434 10.845-1.301 3.47-.65 6.724-1.735 9.327-2.602M18.57 54.063c3.036-1.084 6.723-2.819 10.628-5.42 2.82-1.735 5.206-3.686 7.158-5.42M34.5 59.5c.868-1.3 3.374-3.92 3.591-7.605.217-4.12-1.084-7.372-1.735-8.456m16.919 8.456c-1.302.65-4.121 1.95-7.809 1.95-3.47 0-6.073-1.3-7.375-1.95"/></svg>