<svg xmlns="http://www.w3.org/2000/svg" width="16" height="12" fill="none"><g clip-path="url(#a)"><path fill="#fff" d="M15.177 2.234A1.782 1.782 0 0 0 13.924.978C12.811.672 8.355.667 8.355.667S3.901.662 2.787.954A1.82 1.82 0 0 0 1.53 2.22c-.294 1.113-.297 3.423-.297 3.423s-.002 2.321.29 3.423c.163.61.643 1.091 1.253 1.255 1.125.306 5.568.311 5.568.311s4.455.005 5.569-.287a1.789 1.789 0 0 0 1.256-1.253c.294-1.113.297-3.422.297-3.422s.014-2.322-.29-3.435ZM6.93 7.782l.004-4.267 3.703 2.137-3.707 2.13Z"/></g><defs><clipPath id="a"><path fill="#fff" d="M.533.667h14.933v10.667H.533z"/></clipPath></defs></svg>