<svg xmlns="http://www.w3.org/2000/svg" width="16" height="16" fill="none"><mask id="a" width="16" height="16" x="0" y="0" maskUnits="userSpaceOnUse" style="mask-type:luminance"><path fill="#fff" d="M15.966 0H0v15.966h15.966V0Z"/></mask><g mask="url(#a)"><path fill="#fff" d="M7.983 3.892a4.091 4.091 0 1 0 4.091 4.091 4.082 4.082 0 0 0-4.091-4.091Zm0 6.756a2.664 2.664 0 1 1 0-5.329 2.664 2.664 0 0 1 0 5.329Zm5.219-6.926a.998.998 0 1 1-1.997 0 .998.998 0 0 1 1.997 0Zm2.704.998a4.7 4.7 0 0 0-1.287-3.343A4.7 4.7 0 0 0 11.276.06C9.979 0 5.987 0 4.69.06a4.72 4.72 0 0 0-3.343 1.287A4.7 4.7 0 0 0 .06 4.69C0 5.987 0 9.98.06 11.276a4.7 4.7 0 0 0 1.287 3.343 4.72 4.72 0 0 0 3.343 1.287c1.317.08 5.269.08 6.586 0a4.7 4.7 0 0 0 3.343-1.287 4.7 4.7 0 0 0 1.287-3.343c.06-1.297.06-5.289 0-6.586v.03Zm-1.696 7.983a2.693 2.693 0 0 1-1.517 1.517c-1.55.313-3.133.42-4.71.32a17.875 17.875 0 0 1-4.7-.32 2.695 2.695 0 0 1-1.517-1.517c-.419-1.058-.33-3.552-.33-4.71 0-1.157-.089-3.662.33-4.71a2.644 2.644 0 0 1 1.517-1.527 17.872 17.872 0 0 1 4.7-.319c1.577-.101 3.16.006 4.71.32a2.694 2.694 0 0 1 1.517 1.516c.419 1.058.319 3.553.319 4.71 0 1.158.1 3.662-.32 4.71v.01Z"/></g></svg>