<svg xmlns="http://www.w3.org/2000/svg" width="18" height="18" fill="none"><path fill="#fff" d="M15.106 6.182c.01.14.01.28.01.419 0 4.26-3.242 9.169-9.167 9.169A9.105 9.105 0 0 1 1 14.322c.26.03.509.04.778.04a6.456 6.456 0 0 0 4.001-1.376 3.229 3.229 0 0 1-3.013-2.235 3.429 3.429 0 0 0 1.458-.06A3.221 3.221 0 0 1 1.638 7.53v-.04c.43.239.928.389 1.456.409a3.218 3.218 0 0 1-1.437-2.684c0-.598.16-1.147.439-1.625a9.166 9.166 0 0 0 6.646 3.37c-.05-.24-.08-.489-.08-.739A3.221 3.221 0 0 1 11.884 3a3.21 3.21 0 0 1 2.354 1.018 6.366 6.366 0 0 0 2.045-.779 3.216 3.216 0 0 1-1.417 1.776 6.46 6.46 0 0 0 1.856-.499 6.916 6.916 0 0 1-1.616 1.666Z"/></svg>